<svg width="100" height="100" viewBox="0 0 100 100" fill="none" xmlns="http://www.w3.org/2000/svg">
<rect width="100" height="100" fill="#1B1C1F"/>
<path d="M82.3533 4H17.6467C14.0305 4.01012 10.5652 5.45113 8.00819 8.00819C5.45113 10.5652 4.01012 14.0305 4 17.6467L4 82.3533C4.01012 85.9696 5.45113 89.4348 8.00819 91.9918C10.5652 94.5489 14.0305 95.9899 17.6467 96H82.3533C85.9695 95.9899 89.4348 94.5489 91.9918 91.9918C94.5489 89.4348 95.9899 85.9696 96 82.3533V17.6467C95.9899 14.0305 94.5489 10.5652 91.9918 8.00819C89.4348 5.45113 85.9695 4.01012 82.3533 4V4ZM88.3333 82.3533C88.3333 83.9393 87.7033 85.4604 86.5818 86.5818C85.4604 87.7033 83.9393 88.3333 82.3533 88.3333H17.6467C16.0607 88.3333 14.5396 87.7033 13.4182 86.5818C12.2967 85.4604 11.6667 83.9393 11.6667 82.3533V17.6467C11.6667 16.0607 12.2967 14.5396 13.4182 13.4182C14.5396 12.2967 16.0607 11.6667 17.6467 11.6667H82.3533C83.9393 11.6667 85.4604 12.2967 86.5818 13.4182C87.7033 14.5396 88.3333 16.0607 88.3333 17.6467V82.3533Z" fill="#FEFEFF"/>
<path d="M50 27C45.451 27 41.0042 28.3489 37.2219 30.8762C33.4396 33.4035 30.4916 36.9956 28.7508 41.1983C27.01 45.401 26.5545 50.0255 27.4419 54.4871C28.3294 58.9486 30.5199 63.0468 33.7366 66.2635C36.9532 69.4801 41.0514 71.6706 45.5129 72.5581C49.9745 73.4455 54.599 72.99 58.8017 71.2492C63.0044 69.5084 66.5965 66.5604 69.1238 62.7781C71.6511 58.9958 73 54.549 73 50C73 43.9 70.5768 38.0499 66.2635 33.7365C61.9501 29.4232 56.1 27 50 27ZM50 65.3333C46.9674 65.3333 44.0028 64.434 41.4813 62.7492C38.9597 61.0643 36.9944 58.6696 35.8339 55.8678C34.6733 53.066 34.3697 49.983 34.9613 47.0086C35.5529 44.0342 37.0133 41.3021 39.1577 39.1577C41.3021 37.0133 44.0342 35.5529 47.0086 34.9613C49.983 34.3696 53.066 34.6733 55.8678 35.8338C58.6696 36.9944 61.0644 38.9597 62.7492 41.4813C64.4341 44.0028 65.3333 46.9673 65.3333 50C65.3333 54.0666 63.7179 57.9667 60.8423 60.8423C57.9668 63.7179 54.0667 65.3333 50 65.3333Z" fill="#FDFEFF"/>
<path d="M74.9167 30.8333C78.0923 30.8333 80.6667 28.259 80.6667 25.0833C80.6667 21.9077 78.0923 19.3333 74.9167 19.3333C71.741 19.3333 69.1667 21.9077 69.1667 25.0833C69.1667 28.259 71.741 30.8333 74.9167 30.8333Z" fill="#FDFEFF"/>
</svg>
