<svg width="100" height="100" viewBox="0 0 100 100" fill="none" xmlns="http://www.w3.org/2000/svg">
<g clip-path="url(#clip0)">
<rect width="100" height="100" fill="white"/>
<path d="M54.1506 41.3728L40.866 47.1863L46.9973 61.197L60.2819 55.3835L54.1506 41.3728Z" fill="#1B1C1F"/>
<path d="M-46 18.3548L1.02523 125.813C4.92279 134.719 15.2836 138.792 24.1605 134.908L129.925 88.6234C138.805 84.7375 142.842 74.367 138.943 65.458L91.9176 -42L-46 18.3548ZM80.4796 43.7512C84.9756 41.7837 89.9291 43.1885 91.5484 46.8887C93.1676 50.589 90.8384 55.1808 86.3424 57.1483L78.5158 60.5733L82.2339 69.0698C84.2015 73.5658 82.7967 78.5192 79.0938 80.1397C75.3935 81.759 70.8017 79.4298 68.8342 74.9337L65.116 66.4373L51.8315 72.2508L55.5496 80.7472C57.5172 85.2433 56.1124 90.1967 52.4121 91.816C48.7119 93.4353 44.1201 91.106 42.1526 86.61L38.4344 78.1136L30.6105 81.5374C26.1144 83.5049 21.161 82.1002 19.5417 78.3999C17.9224 74.6996 20.2517 70.1079 24.7477 68.1403L32.5743 64.7153L26.443 50.7046L18.6165 54.1297C14.1204 56.0972 9.16698 54.6924 7.54768 50.9922C5.92839 47.2919 8.25763 42.7001 12.7537 40.7326L20.5803 37.3076L17.7661 30.877C15.7986 26.3809 17.2034 21.4275 20.9036 19.8082C24.6039 18.1889 29.1957 20.5181 31.1632 25.0142L33.9773 31.4448L47.2619 25.6313L44.4478 19.2007C42.4802 14.7046 43.885 9.7512 47.5853 8.1319C51.2882 6.51143 55.88 8.84068 57.8475 13.3367L60.6616 19.7673L68.4855 16.3435C72.9816 14.3759 77.935 15.7807 79.5543 19.481C81.1736 23.1813 78.8444 27.773 74.3483 29.7406L66.5217 33.1656L72.653 47.1763L80.4796 43.7512Z" fill="#1B1C1F"/>
</g>
<defs>
<clipPath id="clip0">
<rect width="100" height="100" fill="white"/>
</clipPath>
</defs>
</svg>
