<svg width="100" height="100" viewBox="0 0 100 100" fill="none" xmlns="http://www.w3.org/2000/svg">
<rect width="100" height="100" fill="#1B1C1F"/>
<circle cx="50" cy="50" r="50" fill="#FCFDFF"/>
<path d="M86.8448 30.8544C84.4418 31.9914 81.7859 32.8758 79.13 33.3812C76.474 29.0857 72.0475 26.0535 66.9886 25.2955C66.1032 25.1692 65.2179 25.0428 64.3326 25.0428C55.7324 25.0428 48.5235 31.2334 47.2588 39.6981C47.1323 40.5824 47.0058 41.5931 47.0058 42.4775C37.1409 38.8137 29.0466 31.4861 24.4936 21.8844C24.2406 21.379 23.7348 21.1263 23.2289 21C22.723 21 22.2171 21.2527 21.8377 21.6317C18.9288 26.0535 18.1699 31.3597 19.6876 36.2869C19.4347 36.2869 19.1817 36.1606 19.0553 36.2869C18.4229 36.4133 18.0435 36.7923 17.917 37.424C16.5258 42.7302 17.917 48.4154 21.2053 52.5846C20.8259 52.5846 20.5729 52.7109 20.32 52.9636C19.8141 53.3426 19.6876 53.9743 19.8141 54.4797C21.2053 59.9122 25.126 64.334 30.1849 66.2291C24.873 68.1242 19.3082 68.8822 13.6169 68.5032C12.9845 68.5032 12.3522 68.8822 12.0992 69.5139C11.8463 70.1456 12.0992 70.7773 12.6051 71.2827C18.2964 75.5782 24.9995 78.3576 32.082 79.4946C34.3585 79.8737 36.5085 80 38.7851 80C58.2619 80 75.4623 66.9871 80.6476 48.2891C81.0271 47.2784 81.28 46.1413 81.4065 45.1306C81.4065 44.8779 81.533 44.6253 81.533 44.3726C81.6594 43.9936 81.6594 43.6146 81.7859 43.2355C84.6948 40.2034 87.0978 36.7923 88.8684 33.0021C89.1213 32.4968 88.9949 31.7388 88.6154 31.3597C88.1096 30.7281 87.3507 30.6017 86.8448 30.8544Z" fill="black"/>
</svg>
